<?xml version="1.0" encoding="UTF-8" standalone="no"?>
<svg xmlns="http://www.w3.org/2000/svg" xmlns:xlink="http://www.w3.org/1999/xlink" clip-rule="evenodd" stroke-miterlimit="10" viewBox="0 0 510.24 481.89">
    <desc>SVG generated by Lineform</desc>
    <defs/>
    <g>
        <path d="M 302.84 118.43 C 318.91 124.48 332.89 132.64 346.16 143.58 C 361.76 156.45 381.64 178.09 386.34 194.59 C 391.23 211.75 412.30 244.43 427.21 271.44 C 430.02 276.54 432.76 282.43 432.10 288.21 C 431.40 294.38 426.39 297.56 421.62 299.39 C 396.70 308.94 373.69 318.22 348.61 327.34 C 334.55 332.45 305.53 330.02 295.85 301.84 C 288.32 279.90 296.90 260.73 316.12 249.09 C 328.05 241.85 337.35 228.03 334.98 211.70 C 332.54 194.90 320.75 183.88 307.73 178.52 C 276.06 165.47 244.38 152.43 212.71 139.39 C 203.98 135.80 193.02 139.29 187.21 146.73 C 178.82 157.44 183.14 170.52 189.65 179.91 C 210.96 210.66 225.70 227.33 230.88 241.40 C 248.09 288.19 257.08 318.72 270.35 360.18 C 272.92 368.19 279.78 374.50 287.12 379.39 C 294.46 384.28 307.47 385.29 316.12 383.58 C 346.86 377.53 373.58 373.00 404.15 366.47 C 424.57 362.10 436.53 366.47 444.68 371.71 C 456.59 379.36 467.50 387.43 478.91 395.81 C 484.39 399.83 486.85 407.89 486.60 414.68 C 486.25 423.99 478.76 428.13 472.28 429.35 C 405.43 441.92 338.24 453.10 271.40 465.68 C 264.27 467.02 254.62 465.77 249.04 461.14 C 243.57 456.60 240.13 451.86 238.56 444.72 C 225.29 384.17 210.79 309.74 197.34 264.46 C 185.35 224.12 160.08 190.39 140.74 154.06 C 128.63 132.87 120.49 116.32 106.51 92.93 C 102.62 86.42 94.70 79.80 80.66 68.82 C 75.47 64.77 73.20 55.78 78.56 48.56 C 83.56 41.83 93.93 45.76 103.02 49.26 Z M 116.29 53.45 " stroke="#000000" stroke-width="9.00" fill="none"/>
        <path d="M 147.25 165.77 C 129.67 141.78 112.28 111.08 101.49 100.09 C 94.95 93.43 51.41 65.27 29.87 50.83 C 22.76 46.06 20.44 33.71 25.33 25.33 C 29.66 17.90 40.23 12.23 48.73 15.20 C 194.76 66.19 219.52 74.08 309.35 106.38 C 318.70 109.74 354.84 114.95 358.26 118.95 C 364.20 125.91 378.40 169.84 388.30 195.81 " stroke="#000000" stroke-width="5.00" fill="none"/>
        <path d="M 262.40 80.43 L 265.42 69.13 L 243.37 69.14 Z M 262.40 80.43 " fill-rule="non-zero" fill="#FF0000"/>
        <g>
            <path d="M 227.93 100.22 L 230.15 92.95 L 222.88 90.73 L 220.66 98.00 Z M 227.93 100.22 " fill-rule="non-zero" fill="#000000"/>
            <path d="M 220.66 98.00 L 222.88 90.73 L 215.61 88.52 L 213.39 95.79 Z M 220.66 98.00 " fill-rule="non-zero" fill="#FFFFFF"/>
            <path d="M 213.39 95.79 L 215.61 88.52 L 208.34 86.30 L 206.12 93.57 Z M 213.39 95.79 " fill-rule="non-zero" fill="#000000"/>
            <path d="M 230.13 93.01 L 232.34 85.74 L 225.07 83.52 L 222.86 90.79 Z M 230.13 93.01 " fill-rule="non-zero" fill="#FFFFFF"/>
            <path d="M 215.59 88.58 L 217.80 81.31 L 210.53 79.09 L 208.32 86.36 Z M 215.59 88.58 " fill-rule="non-zero" fill="#FFFFFF"/>
            <path d="M 222.84 90.86 L 225.05 83.59 L 217.78 81.37 L 215.57 88.64 Z M 222.84 90.86 " fill-rule="non-zero" fill="#000000"/>
            <path d="M 232.32 85.80 L 234.54 78.53 L 227.27 76.32 L 225.05 83.59 Z M 232.32 85.80 " fill-rule="non-zero" fill="#000000"/>
            <path d="M 225.05 83.59 L 227.27 76.32 L 220.00 74.10 L 217.78 81.37 Z M 225.05 83.59 " fill-rule="non-zero" fill="#FFFFFF"/>
            <path d="M 217.78 81.37 L 220.00 74.10 L 212.73 71.89 L 210.51 79.16 Z M 217.78 81.37 " fill-rule="non-zero" fill="#000000"/>
            <path d="M 234.52 78.60 L 236.74 71.32 L 229.46 69.11 L 227.25 76.38 Z M 234.52 78.60 " fill-rule="non-zero" fill="#FFFFFF"/>
            <path d="M 219.98 74.17 L 222.19 66.89 L 214.92 64.68 L 212.71 71.95 Z M 219.98 74.17 " fill-rule="non-zero" fill="#FFFFFF"/>
            <path d="M 227.23 76.44 L 229.44 69.17 L 222.17 66.96 L 219.96 74.23 Z M 227.23 76.44 " fill-rule="non-zero" fill="#000000"/>
            <path d="M 236.93 71.59 L 239.15 64.32 L 231.88 62.11 L 229.66 69.38 Z M 236.93 71.59 " fill-rule="non-zero" fill="#000000"/>
            <path d="M 229.66 69.38 L 231.88 62.11 L 224.61 59.89 L 222.39 67.16 Z M 229.66 69.38 " fill-rule="non-zero" fill="#FFFFFF"/>
            <path d="M 222.39 67.16 L 224.61 59.89 L 217.33 57.68 L 215.12 64.95 Z M 222.39 67.16 " fill-rule="non-zero" fill="#000000"/>
        </g>
        <path d="M 305.22 375.29 L 308.30 364.01 L 286.25 363.91 Z M 305.22 375.29 " fill-rule="non-zero" fill="#FF0000"/>
    </g>
</svg>