<?xml version="1.0" encoding="UTF-8" standalone="no"?>
<svg xmlns="http://www.w3.org/2000/svg" xmlns:xlink="http://www.w3.org/1999/xlink" clip-rule="evenodd" stroke-miterlimit="10" viewBox="0 0 538.58 425.20">
    <desc>SVG generated by Lineform</desc>
    <defs/>
    <g>
        <path d="M 192.22 143.99 C 158.51 138.50 129.26 134.03 95.56 128.44 C 70.83 124.33 56.14 103.97 59.13 84.00 C 63.48 54.90 83.78 46.25 99.76 48.84 L 127.08 52.99 C 165.21 58.85 175.58 60.54 213.71 66.39 " stroke="#B3B3B3" stroke-width="7.00" fill="none" id="Graphic 6"/>
        <path d="M 183.64 61.90 C 289.76 78.26 346.39 83.07 381.75 88.81 C 405.33 92.64 429.80 95.83 440.64 97.88 C 450.60 99.76 454.75 104.12 453.79 111.45 C 452.99 117.60 453.12 121.83 452.24 128.04 C 451.31 134.63 458.78 137.32 463.35 139.10 C 470.08 141.72 474.76 150.09 469.55 162.48 C 466.98 168.60 468.21 164.27 463.25 174.94 C 460.92 179.97 458.73 182.51 456.04 187.35 C 439.70 213.60 423.35 239.85 407.00 266.10 C 398.34 280.01 381.53 299.14 391.42 311.07 C 396.31 316.95 404.70 320.90 403.01 329.23 C 402.40 332.22 400.71 334.56 397.88 336.40 C 393.51 339.24 373.05 351.67 366.53 355.81 C 356.11 362.42 357.85 359.58 352.65 351.62 C 348.07 344.62 351.41 341.46 354.68 335.94 C 357.76 330.75 358.34 329.95 358.35 325.53 C 358.37 322.18 356.38 317.40 350.87 312.65 C 343.12 305.99 340.61 299.52 341.38 292.95 C 343.42 275.51 365.83 277.99 366.86 257.84 C 367.03 254.56 366.46 249.46 364.56 246.00 C 362.54 242.31 359.33 239.26 353.65 237.38 C 339.59 232.75 337.18 228.77 332.69 218.54 C 329.61 211.53 327.18 204.32 319.50 201.38 C 310.69 198.01 308.40 199.43 298.80 201.32 C 290.37 202.98 280.23 204.55 271.67 200.32 C 261.33 195.22 255.67 182.21 253.76 177.78 C 249.62 168.18 246.81 159.38 236.63 153.83 C 229.47 149.93 216.63 148.29 208.57 146.99 C 103.52 130.19 96.88 128.84 91.13 127.66 C 55.07 120.28 58.07 88.41 58.55 83.90 C 59.14 78.48 60.60 75.02 61.28 73.19 C 64.06 65.71 69.91 57.39 76.86 53.30 C 83.24 49.53 90.69 47.24 99.22 48.81 Z M 276.84 75.24 " stroke="#B3B3B2" stroke-width="8.00" fill="none" id="Graphic 5"/>
        <path d="M 183.49 61.17 C 289.61 77.53 346.25 83.18 381.60 88.91 C 405.18 92.74 446.91 99.51 457.67 102.26 C 467.49 104.77 467.69 104.51 466.74 111.84 C 465.93 118.00 465.44 120.88 464.38 127.07 C 463.90 129.91 466.16 131.12 469.98 134.80 C 472.29 137.01 474.41 138.52 474.01 140.53 C 470.12 160.50 468.07 163.54 463.10 174.21 C 460.77 179.24 458.58 181.78 455.89 186.63 C 439.55 212.87 423.20 239.12 406.86 265.37 C 398.19 279.29 388.19 292.40 378.74 305.69 C 377.79 307.02 376.54 308.80 376.71 310.42 C 377.00 313.10 386.21 317.44 388.92 319.19 C 391.65 320.95 392.42 322.08 392.05 324.93 C 391.79 326.99 389.43 328.31 387.82 329.43 C 380.00 334.89 372.50 340.04 364.68 345.50 C 363.62 346.24 362.28 346.71 361.08 346.24 C 359.77 345.72 358.02 344.42 356.48 343.51 C 354.92 342.58 355.16 340.83 355.42 339.03 C 359.36 312.06 363.35 284.20 367.28 257.22 C 367.76 253.97 366.34 250.49 363.55 248.76 C 358.32 245.51 354.72 242.96 349.61 239.84 C 344.42 236.67 340.50 229.09 338.66 223.29 C 336.40 216.15 330.55 209.25 323.40 207.86 C 312.57 205.76 301.75 204.14 290.92 202.21 C 284.57 201.08 278.27 198.33 275.45 190.60 C 273.79 186.07 272.55 181.96 270.98 177.41 C 269.83 174.08 266.02 172.03 262.94 170.34 C 252.76 164.79 242.17 159.18 231.99 153.63 C 224.83 149.72 216.48 147.57 208.43 146.26 C 180.58 141.75 152.96 137.27 125.12 132.75 C 120.26 131.96 115.32 130.22 114.51 122.75 C 113.22 110.76 112.36 98.82 111.22 86.85 C 111.00 84.61 110.90 81.78 108.16 80.69 C 106.39 79.99 104.29 80.30 103.15 81.82 C 101.43 84.11 99.58 86.14 97.86 88.42 C 96.32 90.47 92.34 90.42 90.01 89.35 C 87.39 88.15 85.01 85.89 82.16 85.51 C 76.34 84.73 70.90 84.45 65.08 83.67 C 62.53 83.33 59.96 80.20 60.22 77.64 C 60.50 75.03 60.75 74.30 61.43 72.46 C 64.22 64.98 69.76 56.67 76.71 52.57 C 83.09 48.80 90.54 46.51 99.07 48.09 Z M 276.69 74.52 " stroke="#000000" stroke-width="8.00" fill="none" id="Graphic 5"/>
        <path d="M 62.18 72.63 C 66.12 63.97 75.07 58.36 79.23 58.18 C 93.16 57.57 108.28 57.19 119.13 58.88 C 149.95 63.68 179.13 67.82 207.16 72.25 C 223.80 74.89 240.82 72.59 261.70 75.44 " stroke="#000000" stroke-width="3.03" fill="none" id="Graphic 8"/>
        <path d="M 151.76 31.89 C 151.18 36.67 150.61 41.44 150.03 46.21 C 159.01 44.93 167.98 43.65 176.96 42.37 Z M 151.76 31.89 " fill-rule="non-zero" fill="#FF0000" id="Graphic 28 (1)"/>
        <g>
            <path d="M 173.63 72.38 L 174.70 64.97 L 182.11 66.05 L 181.03 73.45 Z M 173.63 72.38 " fill-rule="non-zero" fill="#000000" id="Rect 24"/>
            <path d="M 181.03 73.45 L 182.11 66.05 L 189.51 67.12 L 188.44 74.53 Z M 181.03 73.45 " fill-rule="non-zero" fill="#FFFFFF" id="Rect 24 (1)"/>
            <path d="M 188.44 74.53 L 189.51 67.12 L 196.92 68.19 L 195.84 75.60 Z M 188.44 74.53 " fill-rule="non-zero" fill="#000000" id="Rect 24 (2)"/>
            <path d="M 174.69 65.04 L 175.77 57.64 L 183.17 58.71 L 182.10 66.11 Z M 174.69 65.04 " fill-rule="non-zero" fill="#FFFFFF" id="Rect 24 (3)"/>
            <path d="M 189.50 67.19 L 190.57 59.78 L 197.98 60.85 L 196.91 68.26 Z M 189.50 67.19 " fill-rule="non-zero" fill="#FFFFFF" id="Rect 24 (4)"/>
            <path d="M 182.09 66.18 L 183.16 58.77 L 190.56 59.85 L 189.49 67.25 Z M 182.09 66.18 " fill-rule="non-zero" fill="#000000" id="Rect 24 (5)"/>
            <path d="M 175.76 57.70 L 176.83 50.30 L 184.23 51.37 L 183.16 58.77 Z M 175.76 57.70 " fill-rule="non-zero" fill="#000000" id="Rect 24 (11)"/>
            <path d="M 183.16 58.77 L 184.23 51.37 L 191.64 52.44 L 190.56 59.85 Z M 183.16 58.77 " fill-rule="non-zero" fill="#FFFFFF" id="Rect 24 (11)"/>
            <path d="M 190.56 59.85 L 191.64 52.44 L 199.04 53.51 L 197.97 60.92 Z M 190.56 59.85 " fill-rule="non-zero" fill="#000000" id="Rect 24 (11)"/>
            <path d="M 176.82 50.36 L 177.89 42.96 L 185.30 44.03 L 184.22 51.43 Z M 176.82 50.36 " fill-rule="non-zero" fill="#FFFFFF" id="Rect 24 (11)"/>
            <path d="M 191.63 52.51 L 192.70 45.10 L 200.11 46.18 L 199.03 53.58 Z M 191.63 52.51 " fill-rule="non-zero" fill="#FFFFFF" id="Rect 24 (11)"/>
            <path d="M 184.21 51.50 L 185.29 44.09 L 192.69 45.17 L 191.62 52.57 Z M 184.21 51.50 " fill-rule="non-zero" fill="#000000" id="Rect 24 (11)"/>
            <path d="M 177.60 43.11 L 178.68 35.71 L 186.08 36.78 L 185.01 44.19 Z M 177.60 43.11 " fill-rule="non-zero" fill="#000000" id="Rect 24 (17)"/>
            <path d="M 185.01 44.19 L 186.08 36.78 L 193.49 37.85 L 192.41 45.26 Z M 185.01 44.19 " fill-rule="non-zero" fill="#FFFFFF" id="Rect 24 (17)"/>
            <path d="M 192.41 45.26 L 193.49 37.85 L 200.89 38.93 L 199.82 46.33 Z M 192.41 45.26 " fill-rule="non-zero" fill="#000000" id="Rect 24 (17)"/>
        </g>
        <ellipse cx="480.53" cy="93.49" rx="10.50" ry="10.50" fill="#FFFFFF" stroke="#000000" stroke-width="0.61" id="Oval 36 (1)"/>
        <text xml:space="preserve" font-family="Liberation Sans" font-size="10.00" transform="matrix(0.981308, 0, 0, 0.981308, 0, 0)" id="Rect 37 (1)">
            <tspan x="486.91" y="98.99">1</tspan>
        </text>
        <ellipse cx="466.46" cy="105.73" rx="3.63" ry="3.63" fill="#FFFFFF" stroke="#000000" stroke-width="0.81" id="Oval 39 (12)"/>
        <ellipse cx="464.49" cy="128.45" rx="3.63" ry="3.63" fill="#FFFFFF" stroke="#000000" stroke-width="0.81" id="Oval 39 (12)"/>
        <ellipse cx="473.61" cy="138.68" rx="3.63" ry="3.63" fill="#FFFFFF" stroke="#000000" stroke-width="0.81" id="Oval 39 (12)"/>
        <ellipse cx="377.25" cy="309.78" rx="3.63" ry="3.63" fill="#FFFFFF" stroke="#000000" stroke-width="0.81" id="Oval 39 (12)"/>
        <ellipse cx="392.18" cy="323.46" rx="3.63" ry="3.63" fill="#FFFFFF" stroke="#000000" stroke-width="0.81" id="Oval 39 (12)"/>
        <ellipse cx="358.86" cy="344.93" rx="3.63" ry="3.63" fill="#FFFFFF" stroke="#000000" stroke-width="0.81" id="Oval 39 (12)"/>
        <ellipse cx="366.86" cy="252.23" rx="3.63" ry="3.63" fill="#FFFFFF" stroke="#000000" stroke-width="0.81" id="Oval 39 (12)"/>
        <ellipse cx="345.72" cy="236.17" rx="3.63" ry="3.63" fill="#FFFFFF" stroke="#000000" stroke-width="0.81" id="Oval 39 (12)"/>
        <ellipse cx="332.23" cy="212.95" rx="3.63" ry="3.63" fill="#FFFFFF" stroke="#000000" stroke-width="0.81" id="Oval 39 (12)"/>
        <ellipse cx="279.73" cy="196.96" rx="3.63" ry="3.63" fill="#FFFFFF" stroke="#000000" stroke-width="0.81" id="Oval 39 (12)"/>
        <ellipse cx="269.73" cy="174.93" rx="3.63" ry="3.63" fill="#FFFFFF" stroke="#000000" stroke-width="0.81" id="Oval 39 (12)"/>
        <ellipse cx="118.23" cy="130.95" rx="3.63" ry="3.63" fill="#FFFFFF" stroke="#000000" stroke-width="0.81" id="Oval 39 (12)"/>
        <ellipse cx="107.74" cy="80.44" rx="3.63" ry="3.63" fill="#FFFFFF" stroke="#000000" stroke-width="0.81" id="Oval 39 (12)"/>
        <ellipse cx="93.23" cy="90.45" rx="3.63" ry="3.63" fill="#FFFFFF" stroke="#000000" stroke-width="0.81" id="Oval 39 (12)"/>
        <ellipse cx="60.52" cy="79.58" rx="3.63" ry="3.63" fill="#FFFFFF" stroke="#000000" stroke-width="0.81" id="Oval 39 (12)"/>
        <ellipse cx="82.15" cy="85.84" rx="3.63" ry="3.63" fill="#FFFFFF" stroke="#000000" stroke-width="0.81" id="Oval 39 (12)"/>
        <ellipse cx="442.55" cy="130.95" rx="10.50" ry="10.50" fill="#FFFFFF" stroke="#000000" stroke-width="0.61" id="Oval 36 (1)"/>
        <text xml:space="preserve" font-family="Liberation Sans" font-size="10.00" transform="matrix(0.981308, 0, 0, 0.981308, 0, 0)" id="Rect 37 (1)">
            <tspan x="448.20" y="137.16">2</tspan>
        </text>
        <ellipse cx="492.04" cy="137.06" rx="10.50" ry="10.50" fill="#FFFFFF" stroke="#000000" stroke-width="0.61" id="Oval 36 (1)"/>
        <text xml:space="preserve" font-family="Liberation Sans" font-size="10.00" transform="matrix(0.981308, 0, 0, 0.981308, 0, 0)" id="Rect 37 (1)">
            <tspan x="498.63" y="143.39">3</tspan>
        </text>
        <ellipse cx="401.27" cy="303.19" rx="10.50" ry="10.50" fill="#FFFFFF" stroke="#000000" stroke-width="0.61" id="Oval 36 (1)"/>
        <text xml:space="preserve" font-family="Liberation Sans" font-size="10.00" transform="matrix(0.981308, 0, 0, 0.981308, 0, 0)" id="Rect 37 (1)">
            <tspan x="406.13" y="312.68">4</tspan>
        </text>
        <ellipse cx="405.43" cy="332.82" rx="10.50" ry="10.50" fill="#FFFFFF" stroke="#000000" stroke-width="0.61" id="Oval 36 (1)"/>
        <text xml:space="preserve" font-family="Liberation Sans" font-size="10.00" transform="matrix(0.981308, 0, 0, 0.981308, 0, 0)" id="Rect 37 (1)">
            <tspan x="410.37" y="342.87">5</tspan>
        </text>
        <ellipse cx="350.90" cy="360.67" rx="10.50" ry="10.50" fill="#FFFFFF" stroke="#000000" stroke-width="0.61" id="Oval 36 (1)"/>
        <text xml:space="preserve" font-family="Liberation Sans" font-size="10.00" transform="matrix(0.981308, 0, 0, 0.981308, 0, 0)" id="Rect 37 (1)">
            <tspan x="354.80" y="371.25">6</tspan>
        </text>
        <ellipse cx="384.21" cy="242.84" rx="10.50" ry="10.50" fill="#FFFFFF" stroke="#000000" stroke-width="0.61" id="Oval 36 (1)"/>
        <text xml:space="preserve" font-family="Liberation Sans" font-size="10.00" transform="matrix(0.981308, 0, 0, 0.981308, 0, 0)" id="Rect 37 (1)">
            <tspan x="388.75" y="251.18">7</tspan>
        </text>
        <ellipse cx="331.25" cy="250.25" rx="10.50" ry="10.50" fill="#FFFFFF" stroke="#000000" stroke-width="0.61" id="Oval 36 (1)"/>
        <text xml:space="preserve" font-family="Liberation Sans" font-size="10.00" transform="matrix(0.981308, 0, 0, 0.981308, 0, 0)" id="Rect 37 (1)">
            <tspan x="334.78" y="258.73">8</tspan>
        </text>
        <ellipse cx="347.65" cy="201.29" rx="10.50" ry="10.50" fill="#FFFFFF" stroke="#000000" stroke-width="0.61" id="Oval 36 (1)"/>
        <text xml:space="preserve" font-family="Liberation Sans" font-size="10.00" transform="matrix(0.981308, 0, 0, 0.981308, 0, 0)" id="Rect 37 (1)">
            <tspan x="351.49" y="208.84">9</tspan>
        </text>
        <ellipse cx="270.52" cy="213.83" rx="10.50" ry="10.50" fill="#FFFFFF" stroke="#000000" stroke-width="0.61" id="Oval 36 (1)"/>
        <text xml:space="preserve" font-family="Liberation Sans" font-size="10.00" transform="matrix(0.981308, 0, 0, 0.981308, 0, 0)" id="Rect 37 (1)">
            <tspan x="270.11" y="221.62">10</tspan>
        </text>
        <ellipse cx="108.45" cy="148.32" rx="10.50" ry="10.50" fill="#FFFFFF" stroke="#000000" stroke-width="0.61" id="Oval 36 (1)"/>
        <text xml:space="preserve" font-family="Liberation Sans" font-size="10.00" transform="matrix(0.981308, 0, 0, 0.981308, 0, 0)" id="Rect 37 (1)">
            <tspan x="104.95" y="154.86">12</tspan>
        </text>
        <ellipse cx="124.43" cy="74.82" rx="10.50" ry="10.50" fill="#FFFFFF" stroke="#000000" stroke-width="0.61" id="Oval 36 (1)"/>
        <text xml:space="preserve" font-family="Liberation Sans" font-size="10.00" transform="matrix(0.981308, 0, 0, 0.981308, 0, 0)" id="Rect 37 (1)">
            <tspan x="121.24" y="79.96">13</tspan>
        </text>
        <ellipse cx="93.94" cy="108.21" rx="10.50" ry="10.50" fill="#FFFFFF" stroke="#000000" stroke-width="0.61" id="Oval 36 (1)"/>
        <text xml:space="preserve" font-family="Liberation Sans" font-size="10.00" transform="matrix(0.981308, 0, 0, 0.981308, 0, 0)" id="Rect 37 (1)">
            <tspan x="90.17" y="113.99">14</tspan>
        </text>
        <ellipse cx="39.39" cy="80.21" rx="10.50" ry="10.50" fill="#FFFFFF" stroke="#000000" stroke-width="0.61" id="Oval 36 (1)"/>
        <text xml:space="preserve" font-family="Liberation Sans" font-size="10.00" transform="matrix(0.981308, 0, 0, 0.981308, 0, 0)" id="Rect 37 (1)">
            <tspan x="34.58" y="85.45">16</tspan>
        </text>
        <ellipse cx="87.53" cy="70.78" rx="10.50" ry="10.50" fill="#FFFFFF" stroke="#000000" stroke-width="0.61" id="Oval 36 (1)"/>
        <text xml:space="preserve" font-family="Liberation Sans" font-size="10.00" transform="matrix(0.981308, 0, 0, 0.981308, 0, 0)" id="Rect 37 (1)">
            <tspan x="83.64" y="75.84">15</tspan>
        </text>
        <ellipse cx="284.55" cy="163.37" rx="10.50" ry="10.50" fill="#FFFFFF" stroke="#000000" stroke-width="0.61" id="Oval 36 (1)"/>
        <text xml:space="preserve" font-family="Liberation Sans" font-size="10.00" transform="matrix(0.981308, 0, 0, 0.981308, 0, 0)" id="Rect 37 (1)">
            <tspan x="284.78" y="170.20">11</tspan>
        </text>
        <ellipse cx="59.48" cy="37.43" rx="10.50" ry="10.50" fill="#FFFFFF" stroke="#000000" stroke-width="0.61" id="Oval 36 (1)"/>
        <text xml:space="preserve" font-family="Liberation Sans" font-size="10.00" transform="matrix(0.981308, 0, 0, 0.981308, 0, 0)" id="Rect 37 (1)">
            <tspan x="55.05" y="41.86">17</tspan>
        </text>
        <ellipse cx="71.91" cy="56.48" rx="3.63" ry="3.63" fill="#FFFFFF" stroke="#000000" stroke-width="0.81" id="Oval 39 (12)"/>
    </g>
</svg>